<?xml version="1.0" encoding="utf-8"?>
<!-- Generator: Adobe Illustrator 16.0.0, SVG Export Plug-In . SVG Version: 6.00 Build 0)  -->
<!DOCTYPE svg PUBLIC "-//W3C//DTD SVG 1.1//EN" "http://www.w3.org/Graphics/SVG/1.1/DTD/svg11.dtd">
<svg version="1.1" id="Layer_1" xmlns="http://www.w3.org/2000/svg" xmlns:xlink="http://www.w3.org/1999/xlink" x="0px" y="0px"
	 width="72px" height="72px" viewBox="0 0 72 72" enable-background="new 0 0 72 72" xml:space="preserve">
<g>
	<defs>
		<rect id="SVGID_1_" x="1.417" y="1.326" width="71.25" height="69.485"/>
	</defs>
	<clipPath id="SVGID_2_">
		<use xlink:href="#SVGID_1_"  overflow="visible"/>
	</clipPath>
	<g clip-path="url(#SVGID_2_)">
		<path fill="#FFFFFF" d="M36.16,7.297l4.456,4.391c0,0,0.532,16.541,1.256,7.944C42.992,6.292,36.16,7.297,36.16,7.297z"/>
		<path fill="#FFFFFF" d="M31.081,16.431c-0.501,11.195,3.089,8.825,3.089,8.825l-1.569-1.955
			C32.602,23.301,31.29,11.77,31.081,16.431z"/>
		<path fill="#FFFFFF" d="M36.16,1.326c-19.189,0-34.744,15.554-34.744,34.742c0,19.188,15.555,34.743,34.744,34.743
			c19.187,0,34.742-15.555,34.742-34.743C70.902,16.879,55.347,1.326,36.16,1.326z M37.749,27.513
			c0.169,4.139,1.456,26.735,1.415,31.132c-0.044,4.705,0.2,5.824-2.459,5.824c-2.257,0-2.408-1.881-2.022-5.824
			c0.252-2.563,0.86-26.675,0.969-31.041c-6.307-0.242-6.326-4.876-6.326-10.576c0-5.853,2.819-11.792,6.834-11.792
			c4.323,0,6.832,5.939,6.832,11.792C42.992,22.382,42.976,26.795,37.749,27.513z"/>
	</g>
</g>
<text transform="matrix(0.1799 -0.9837 0.9837 0.1799 8.3828 36.6118)" fill="#FFFFFF" font-family="'Whitney-LightSC'" font-size="10.0701"> </text>
</svg>
